<?xml version="1.0" encoding="utf-8"?>
<!-- Generator: Adobe Illustrator 21.0.0, SVG Export Plug-In . SVG Version: 6.00 Build 0)  -->
<svg version="1.1" id="Warstwa_1" xmlns="http://www.w3.org/2000/svg" xmlns:xlink="http://www.w3.org/1999/xlink" x="0px" y="0px"
	 viewBox="0 0 734.3 954" style="enable-background:new 0 0 734.3 954;" xml:space="preserve">
<style type="text/css">
	.st0{clip-path:url(#SVGID_2_);}
	.st1{clip-path:url(#SVGID_4_);}
	.st2{clip-path:url(#SVGID_6_);}
	.st3{clip-path:url(#SVGID_8_);}
	.st4{clip-path:url(#SVGID_10_);}
	*{fill:#60CC89;}
</style>
<g id="Warstwa_1_1_">
	<g>
		<path d="M172.1,664.3c-80.6-1.2-146.7,43.6-147.6,100.2C23.6,821.1,88.3,868,168.9,869.2S315.6,825.6,316.5,769
			C317.4,712.5,252.7,665.6,172.1,664.3z M215.9,813.1c-39.6,41.1-92.4,54.5-118.1,29.8s-14.4-78.1,25.1-119.2
			c39.6-41.1,92.4-54.5,118.1-29.8C266.7,718.6,255.4,772,215.9,813.1z"/>
		<polygon points="308.9,800.1 368.3,677.7 368.3,618.2 285.5,788.7 		"/>
	</g>
	<g>
		<polygon points="89.1,43 65.7,54.4 368.3,677.7 368.3,618.2 		"/>
		<path d="M147.5,223L88.3,49l-22.6,5.4c38.8,197.5-205.4,371.2,59.3,586.3C-12.7,414.9,96.5,247.7,147.5,223z"/>
		<path d="M93.5,239.8c37.6,77.4,149.7,332.5,238.6,363.3c-62.6-156.4-224.5-464.6-224.5-464.6L93.5,239.8z"/>
	</g>
	<g>
		<g>
			<g>
				<g>
					<defs>
						<rect id="SVGID_1_" x="162.3" y="9" width="412" height="412"/>
					</defs>
					<clipPath id="SVGID_2_">
						<use xlink:href="#SVGID_1_"  style="overflow:visible;"/>
					</clipPath>
					<path class="st0" d="M268.7,188.6c-2.2,8.4-3.4,17.2-3.4,26.4c0,18.1,4.7,35.1,12.9,49.9L368.3,421v-59.9L268.7,188.6z"/>
				</g>
				<g>
					<defs>
						<rect id="SVGID_3_" x="162.3" y="9" width="412" height="412"/>
					</defs>
					<clipPath id="SVGID_4_">
						<use xlink:href="#SVGID_3_"  style="overflow:visible;"/>
					</clipPath>
					<path class="st1" d="M227.3,176.7c3.3-12.3,8.2-24,14.5-34.7h126.5v-30H189.9L227.3,176.7z"/>
				</g>
				<g>
					<defs>
						<rect id="SVGID_5_" x="162.3" y="9" width="412" height="412"/>
					</defs>
					<clipPath id="SVGID_6_">
						<use xlink:href="#SVGID_5_"  style="overflow:visible;"/>
					</clipPath>
					<path class="st2" d="M281.9,105.4h86.4V75.5C335.7,75.5,305.7,86.6,281.9,105.4z"/>
				</g>
				<g>
					<defs>
						<rect id="SVGID_7_" x="162.3" y="9" width="412" height="412"/>
					</defs>
					<clipPath id="SVGID_8_">
						<use xlink:href="#SVGID_7_"  style="overflow:visible;"/>
					</clipPath>
					<path class="st3" d="M354.3,323.7l14,24.2v-23.3C363.5,324.6,358.9,324.3,354.3,323.7z"/>
				</g>
				<g>
					<defs>
						<rect id="SVGID_9_" x="162.3" y="9" width="412" height="412"/>
					</defs>
					<clipPath id="SVGID_10_">
						<use xlink:href="#SVGID_9_"  style="overflow:visible;"/>
					</clipPath>
					<path class="st4" d="M258.7,215c0-25,8.4-48,22.4-66.5h-28h-7.6c-10.7,19.7-16.8,42.4-16.8,66.5c0,58.8,36.4,109.1,87.8,129.6
						l-42.2-73.3C264.4,254.9,258.7,235.6,258.7,215z"/>
				</g>
			</g>
		</g>
	</g>
</g>
<g id="Warstwa_2">
	<path d="M669.9,119.8v591c4.8,54,15.5,96.7,32.2,128c16.7-31.3,27.5-74,32.2-128v-591C712.4,108.8,690.9,109,669.9,119.8z
		 M676.2,617.6H728v25h-51.8V617.6z"/>
	<path d="M541.3,62.2v688.3c5.9,63,19.3,112.6,40.1,149.1c20.8-36.4,34.2-86.2,40.1-149.1V62.2C594.1,49.3,567.4,49.6,541.3,62.2z
		 M549.2,642h64.4v29.1h-64.4V642z"/>
	<path d="M400.4,10.8v775.3c6.8,70.9,22.2,126.8,46.2,167.9c24-41.1,39.4-97.1,46.2-167.9V10.8C461.3-3.7,430.5-3.4,400.4,10.8z
		 M409.4,663.7h74.4v32.8h-74.4V663.7z"/>
</g>
</svg>
