<?xml version="1.0" encoding="utf-8"?>
<!-- Generator: Adobe Illustrator 21.0.0, SVG Export Plug-In . SVG Version: 6.00 Build 0)  -->
<svg version="1.1" id="Warstwa_1" xmlns="http://www.w3.org/2000/svg" xmlns:xlink="http://www.w3.org/1999/xlink" x="0px" y="0px"
	 viewBox="0 0 766.9 851.3" style="enable-background:new 0 0 766.9 851.3;" xml:space="preserve">
<style>
	*{fill:#60CC89;}
</style>
<g id="Warstwa_1_1_">
	<g>
		<path d="M172.1,631.6c-80.6-1.2-146.7,43.6-147.6,100.2c-0.9,56.6,63.8,103.5,144.4,104.7s146.7-43.6,147.6-100.2
			C317.4,679.8,252.7,632.9,172.1,631.6z M215.9,780.4c-39.6,41.1-92.4,54.5-118.1,29.8S83.4,732.1,122.9,691
			c39.6-41.1,92.4-54.5,118.1-29.8C266.7,685.9,255.4,739.3,215.9,780.4z"/>
		<polygon points="308.9,767.4 368.3,645 368.3,585.5 285.5,756 		"/>
	</g>
	<g>
		<polygon points="89.1,10.3 65.7,21.7 368.3,645 368.3,585.5 		"/>
		<path d="M147.5,190.3l-59.2-174l-22.6,5.4C104.5,219.2-139.7,392.9,125,608C-12.7,382.2,96.5,215,147.5,190.3z"/>
		<path d="M93.5,207.1c37.6,77.4,149.7,332.5,238.6,363.3C269.5,414,107.6,105.8,107.6,105.8L93.5,207.1z"/>
	</g>
	<g>
		<g>
			<g>
				<g>
					<path d="M268.7,155.9c-2.2,8.4-3.4,17.2-3.4,26.4c0,18.1,4.7,35.1,12.9,49.9l90.1,156.1v-59.9L268.7,155.9z"/>
				</g>
				<g>
					<path d="M227.3,144c3.3-12.3,8.2-24,14.5-34.7h126.5v-30H189.9L227.3,144z"/>
				</g>
				<g>
					<path d="M281.9,72.7h86.4V42.8C335.7,42.8,305.7,53.9,281.9,72.7z"/>
				</g>
				<g>
					<path d="M354.3,291l14,24.2v-23.3C363.5,291.9,358.9,291.6,354.3,291z"/>
				</g>
				<g>
					<path d="M258.7,182.3c0-25,8.4-48,22.4-66.5h-28h-7.6c-10.7,19.7-16.8,42.4-16.8,66.5c0,58.8,36.4,109.1,87.8,129.6l-42.2-73.3
						C264.4,222.2,258.7,202.9,258.7,182.3z"/>
				</g>
			</g>
		</g>
	</g>
</g>
<g id="podkłady">
	<polygon points="501.3,338.3 400.3,338.3 400.3,851.3 459.3,851.3 	"/>
	<g>
		<path d="M566.8,169.3C560.3,79.7,489.5,8,400.3,0v169.3H566.8z"/>
		<path d="M400.3,197.3v113h115.5c28.8-29.8,47.5-69.2,51-113H400.3z"/>
	</g>
	<path d="M538.6,693.9l27.9-254.6c18.4,12.7,47.5,16.5,77.1,7.8c43.6-12.7,71.9-47.4,63.1-77.6c-8.8-30.1-51.3-44.2-94.9-31.5
		c-38.4,11.2-64.9,39.5-64.7,66.6l-32.3,295.2l-13.5,119.8l14.9,3.2C548.4,694.7,742,660,645.1,458.3
		C660.5,602.1,585.5,673.8,538.6,693.9z"/>
	<path d="M578.9,24.9l100.7,40.2c-22.6,97.3,35.1,117.2,87.3,146.4c-85.3-6.8-73.2,80.6-2.8,116.2c-132.3-40.1-124.9-129.3-51.3-132
		c-50.8-15.7-84.4-32.1-84.4-32.1C648,122.6,651.1,64.6,578.9,24.9z"/>
</g>
</svg>
