<?xml version="1.0" encoding="utf-8"?>
<!-- Generator: Adobe Illustrator 21.0.0, SVG Export Plug-In . SVG Version: 6.00 Build 0)  -->
<svg version="1.1" id="Warstwa_1" xmlns="http://www.w3.org/2000/svg" xmlns:xlink="http://www.w3.org/1999/xlink" x="0px" y="0px"
	 viewBox="0 0 1248 495" style="enable-background:new 0 0 1248 495;" xml:space="preserve">
<style type="text/css">
	.st0{fill:#60CC89;}
</style>
<g id="Warstwa_1_1_">
	<g>
		<path class="st0" d="M205.5,435c0.5-33.9-38.2-62-86.5-62.7c-48.3-0.7-87.9,26.1-88.4,60s38.2,62,86.5,62.7
			C165.4,495.8,205,468.9,205.5,435z M145.3,461.3c-23.7,24.6-55.3,32.6-70.7,17.9c-15.4-14.8-8.6-46.8,15-71.4
			c23.7-24.6,55.3-32.6,70.7-17.9C175.7,404.7,168.9,436.7,145.3,461.3z"/>
		
			<rect x="54.1" y="219" transform="matrix(0.4368 -0.8996 0.8996 0.4368 -33.6709 399.7492)" class="st0" width="496.6" height="15.6"/>
		<path class="st0" d="M417.8,6.8c-23.2,118.3,123,222.4-35.5,351.2c82.5-135.3,17.1-235.4-13.5-250.2L403.7,0L417.8,6.8z"/>
		<path class="st0" d="M401.2,117.9c-22.5,46.4-89.7,199.2-142.9,217.6c37.5-93.7,134.5-278.3,134.5-278.3L401.2,117.9z"/>
	</g>
	<g>
		<path class="st0" d="M356,495c48.3-0.7,87-28.8,86.5-62.7c-0.5-33.9-40.1-60.8-88.4-60c-48.3,0.8-87,28.8-86.5,62.7
			S307.7,495.8,356,495z M312.8,389.9c15.4-14.8,47.1-6.8,70.7,17.9c23.7,24.6,30.4,56.6,15,71.4c-15.4,14.8-47.1,6.8-70.7-17.9
			C304.2,436.6,297.4,404.7,312.8,389.9z"/>
		
			<rect x="162.9" y="-21.5" transform="matrix(0.8996 -0.4368 0.4368 0.8996 -81.9195 97.3479)" class="st0" width="15.6" height="496.6"/>
		<path class="st0" d="M55.3,6.8C78.5,125.2-67.7,229.2,90.8,358C8.3,222.8,73.8,122.6,104.3,107.8L68.8,3.6L55.3,6.8z"/>
		<path class="st0" d="M72,117.9c22.5,46.4,89.7,199.2,142.9,217.6C177.4,241.8,80.4,57.2,80.4,57.2L72,117.9z"/>
	</g>
</g>
<g id="Warstwa_2">
	<g>
		<g>
			<g>
				<path class="st0" d="M236.6,190.6L236.6,190.6L176.9,87.2c-1.3,5-2,10.3-2,15.8c0,10.8,2.8,21,7.7,29.9l54,93.5l22.4-38.8
					C251.8,189.5,244.3,190.6,236.6,190.6"/>
				<path class="st0" d="M298.6,41.4c5.3,5.3,9.9,11.4,13.7,17.9l0,0l-59.7,103.3c15.6-4.2,28.7-14.4,36.8-27.9l54-93.4L298.6,41.4
					L298.6,41.4z"/>
				<path class="st0" d="M160.7,59.3L160.7,59.3h119.3c-11.1-11.1-26.5-17.9-43.5-17.9H129.7l22.4,38.8
					C154.1,72.7,157,65.7,160.7,59.3"/>
				<path class="st0" d="M236.6,37.4L236.6,37.4c27.3,0,50.7,16.7,60.6,40.3l8.4-14.5l0.1-0.1l2.2-3.8c-14.7-24-41.1-39.9-71.3-39.9
					c-19.5,0-37.5,6.7-51.8,17.9L236.6,37.4L236.6,37.4z"/>
				<path class="st0" d="M294,134.9c-11.2,20.2-32.7,33.8-57.4,33.8c-2.9,0-5.6-0.2-8.4-0.5l8.4,14.5l2.3,4
					c45.1-1.2,81.3-38.2,81.3-83.6c0-4.1-0.3-8.1-0.8-12L294,134.9z"/>
				<path class="st0" d="M180.3,136.8c-5.9-9.9-9.3-21.4-9.3-33.7c0-15,5-28.8,13.4-39.8h-16.8H163c-6.4,11.8-10.1,25.4-10.1,39.8
					c0,35.2,21.8,65.4,52.6,77.6L180.3,136.8z"/>
			</g>
		</g>
	</g>
</g>
<g>
	<path class="st0" d="M509.9,156.8v-70h13.4l29.8,49.4H546l29.3-49.4h13.3l0.2,70h-15.2l-0.1-46.7h2.8l-23.4,39.3h-7.3l-23.9-39.3
		h3.4v46.7H509.9z"/>
	<path class="st0" d="M627,157.6c-4.5,0-8.5-0.9-12-2.6c-3.5-1.7-6.2-4.4-8.2-8c-1.9-3.6-2.9-8.1-2.9-13.6V103h15.6v28.1
		c0,4.5,1,7.8,2.8,9.9c1.9,2.1,4.6,3.1,8.1,3.1c2.4,0,4.5-0.5,6.4-1.5c1.9-1,3.3-2.6,4.4-4.8c1.1-2.2,1.6-4.9,1.6-8.2V103h15.6v53.8
		h-14.8V142l2.7,4.3c-1.8,3.7-4.5,6.5-8,8.5C634.9,156.7,631.1,157.6,627,157.6z"/>
	<path class="st0" d="M669.3,156.8v-9.4l31.8-37.6l2.7,5.2H670v-12h46.4v9.4L684.6,150l-2.8-5.2h35.5v12H669.3z"/>
	<path class="st0" d="M733.1,177c-2.8,0-5.6-0.4-8.3-1.3c-2.7-0.9-5-2.1-6.7-3.6l5.7-11.1c1.2,1.1,2.6,1.9,4.1,2.5
		c1.6,0.6,3.1,0.9,4.7,0.9c2.2,0,4-0.5,5.3-1.6c1.3-1,2.5-2.8,3.5-5.1l2.8-6.6l1.2-1.7l19.3-46.4h15l-24.3,57.1
		c-1.7,4.3-3.7,7.7-6,10.2c-2.2,2.5-4.7,4.2-7.4,5.2S736.3,177,733.1,177z M742.3,158.9l-24-55.9h16.1l18.6,45L742.3,158.9z"/>
	<path class="st0" d="M786.1,156.8V82.6h15.6v74.2H786.1z M799,145.8l0.4-19l25.1-23.8h18.6L819,127.5l-8.1,6.6L799,145.8z
		 M826.2,156.8L808,134.2l9.8-12.1l27.3,34.7H826.2z"/>
	<path class="st0" d="M867.7,157.6c-4.2,0-7.8-0.7-10.8-2.1c-3-1.4-5.3-3.4-6.9-5.9c-1.6-2.5-2.4-5.2-2.4-8.3c0-3.2,0.8-6,2.3-8.4
		c1.6-2.4,4-4.3,7.5-5.6c3.4-1.4,7.8-2.1,13.3-2.1H885v9.1h-12.6c-3.7,0-6.2,0.6-7.5,1.8c-1.4,1.2-2,2.7-2,4.5c0,2,0.8,3.6,2.3,4.8
		c1.6,1.2,3.7,1.8,6.5,1.8c2.6,0,4.9-0.6,7-1.8c2.1-1.2,3.6-3.1,4.5-5.5l2.4,7.2c-1.1,3.5-3.2,6.1-6.2,7.9
		C876.3,156.7,872.4,157.6,867.7,157.6z M884.1,156.8v-10.5l-1-2.3v-18.8c0-3.3-1-5.9-3-7.8c-2-1.9-5.2-2.8-9.4-2.8
		c-2.9,0-5.7,0.5-8.5,1.4c-2.8,0.9-5.1,2.1-7,3.6l-5.6-10.9c2.9-2.1,6.5-3.7,10.6-4.8c4.1-1.1,8.3-1.7,12.6-1.7
		c8.2,0,14.6,1.9,19.1,5.8c4.5,3.9,6.8,9.9,6.8,18.1v30.7H884.1z"/>
	<path class="st0" d="M965.2,158c-5.6,0-11-0.8-16.1-2.3c-5.1-1.5-9.3-3.5-12.4-5.9l5.5-12.2c3,2.1,6.5,3.9,10.7,5.3
		c4.1,1.4,8.3,2.1,12.5,2.1c3.2,0,5.8-0.3,7.8-1c2-0.6,3.4-1.5,4.3-2.6c0.9-1.1,1.4-2.4,1.4-3.9c0-1.9-0.7-3.4-2.2-4.5
		c-1.5-1.1-3.4-2-5.8-2.7c-2.4-0.7-5.1-1.4-8-2c-2.9-0.6-5.8-1.4-8.7-2.3c-2.9-0.9-5.5-2.1-8-3.6c-2.4-1.5-4.3-3.4-5.8-5.8
		c-1.5-2.4-2.3-5.5-2.3-9.2c0-4,1.1-7.6,3.3-11c2.2-3.3,5.4-5.9,9.8-7.9c4.4-2,9.8-3,16.5-3c4.4,0,8.7,0.5,13,1.6
		c4.3,1,8,2.6,11.3,4.6l-5,12.3c-3.3-1.9-6.5-3.3-9.8-4.1c-3.3-0.9-6.5-1.4-9.6-1.4c-3.1,0-5.7,0.4-7.7,1.1c-2,0.7-3.4,1.7-4.3,2.9
		c-0.9,1.2-1.3,2.5-1.3,4c0,1.8,0.7,3.3,2.2,4.4c1.5,1.1,3.4,2,5.8,2.6c2.4,0.7,5,1.3,8,2c2.9,0.7,5.8,1.4,8.7,2.3
		c2.9,0.9,5.5,2,8,3.5c2.4,1.5,4.3,3.4,5.8,5.8s2.3,5.4,2.3,9.1c0,3.9-1.1,7.5-3.3,10.8c-2.2,3.3-5.5,5.9-9.9,7.9
		C977.3,157,971.8,158,965.2,158z"/>
	<path class="st0" d="M1001.2,156.8v-9.4l31.8-37.6l2.7,5.2h-33.8v-12h46.4v9.4l-31.8,37.6l-2.8-5.2h35.5v12H1001.2z"/>
	<path class="st0" d="M1065,177c-2.8,0-5.6-0.4-8.3-1.3c-2.7-0.9-5-2.1-6.7-3.6l5.7-11.1c1.2,1.1,2.6,1.9,4.1,2.5
		c1.6,0.6,3.1,0.9,4.7,0.9c2.2,0,4-0.5,5.3-1.6c1.3-1,2.5-2.8,3.5-5.1l2.8-6.6l1.2-1.7l19.3-46.4h15l-24.3,57.1
		c-1.7,4.3-3.7,7.7-6,10.2c-2.2,2.5-4.7,4.2-7.4,5.2S1068.2,177,1065,177z M1074.2,158.9l-24-55.9h16.1l18.6,45L1074.2,158.9z"/>
	<path class="st0" d="M1113.1,116.2v-12h37.3v12H1113.1z M1141.5,157.6c-6.3,0-11.3-1.6-14.8-4.8c-3.5-3.2-5.3-8.1-5.3-14.5V91.1
		h15.6v47c0,2.3,0.6,4,1.8,5.3c1.2,1.2,2.8,1.9,4.9,1.9c2.5,0,4.6-0.7,6.3-2l4.2,11c-1.6,1.1-3.5,2-5.8,2.6
		C1146.2,157.4,1143.9,157.6,1141.5,157.6z"/>
	<path class="st0" d="M1179.6,157.6c-4.2,0-7.8-0.7-10.8-2.1c-3-1.4-5.3-3.4-6.9-5.9c-1.6-2.5-2.4-5.2-2.4-8.3c0-3.2,0.8-6,2.3-8.4
		c1.6-2.4,4-4.3,7.5-5.6c3.4-1.4,7.8-2.1,13.3-2.1h14.3v9.1h-12.6c-3.7,0-6.2,0.6-7.5,1.8c-1.4,1.2-2,2.7-2,4.5c0,2,0.8,3.6,2.3,4.8
		c1.6,1.2,3.7,1.8,6.5,1.8c2.6,0,4.9-0.6,7-1.8c2.1-1.2,3.6-3.1,4.5-5.5l2.4,7.2c-1.1,3.5-3.2,6.1-6.2,7.9
		C1188.2,156.7,1184.3,157.6,1179.6,157.6z M1196,156.8v-10.5l-1-2.3v-18.8c0-3.3-1-5.9-3-7.8c-2-1.9-5.2-2.8-9.4-2.8
		c-2.9,0-5.7,0.5-8.5,1.4c-2.8,0.9-5.1,2.1-7,3.6l-5.6-10.9c2.9-2.1,6.5-3.7,10.6-4.8c4.1-1.1,8.3-1.7,12.6-1.7
		c8.2,0,14.6,1.9,19.1,5.8c4.5,3.9,6.8,9.9,6.8,18.1v30.7H1196z"/>
	<path class="st0" d="M509.9,276.8v-70h13.4l41.3,50.4h-6.5v-50.4h16v70h-13.3l-41.4-50.4h6.5v50.4H509.9z"/>
	<path class="st0" d="M606.2,277.6c-4.2,0-7.8-0.7-10.8-2.1c-3-1.4-5.3-3.4-6.9-5.9c-1.6-2.5-2.4-5.2-2.4-8.3c0-3.2,0.8-6,2.3-8.4
		c1.6-2.4,4-4.3,7.5-5.6c3.4-1.4,7.8-2,13.3-2h14.3v9.1h-12.6c-3.7,0-6.2,0.6-7.5,1.8c-1.4,1.2-2,2.7-2,4.5c0,2,0.8,3.6,2.3,4.8
		c1.6,1.2,3.7,1.8,6.5,1.8c2.6,0,4.9-0.6,7-1.8c2.1-1.2,3.6-3,4.5-5.5l2.4,7.2c-1.1,3.5-3.2,6.1-6.2,7.9
		C614.8,276.7,610.9,277.6,606.2,277.6z M622.6,276.8v-10.5l-1-2.3v-18.8c0-3.3-1-5.9-3-7.8c-2-1.9-5.2-2.8-9.4-2.8
		c-2.9,0-5.7,0.5-8.5,1.4c-2.8,0.9-5.1,2.1-7,3.6l-5.6-10.9c2.9-2.1,6.5-3.7,10.6-4.8c4.1-1.1,8.3-1.7,12.6-1.7
		c8.2,0,14.6,1.9,19.1,5.8c4.5,3.9,6.8,9.9,6.8,18.1v30.7H622.6z"/>
	<path class="st0" d="M680.7,276.8v-70h13.4l29.8,49.4h-7.1l29.3-49.4h13.3l0.2,70h-15.2l-0.1-46.7h2.8l-23.4,39.3h-7.3l-23.9-39.3
		h3.4v46.7H680.7z"/>
	<path class="st0" d="M782.9,215.5c-2.9,0-5.2-0.8-7-2.5c-1.8-1.7-2.7-3.7-2.7-6.2c0-2.5,0.9-4.5,2.7-6.2c1.8-1.7,4.1-2.5,7-2.5
		c2.9,0,5.2,0.8,7,2.4c1.8,1.6,2.7,3.6,2.7,6.1c0,2.6-0.9,4.8-2.7,6.5C788.1,214.7,785.8,215.5,782.9,215.5z M775.1,276.8V223h15.6
		v53.8H775.1z"/>
	<path class="st0" d="M821.8,277.6c-4.2,0-7.8-0.7-10.8-2.1c-3-1.4-5.3-3.4-6.9-5.9c-1.6-2.5-2.4-5.2-2.4-8.3c0-3.2,0.8-6,2.3-8.4
		c1.6-2.4,4-4.3,7.5-5.6c3.4-1.4,7.8-2,13.3-2h14.3v9.1h-12.6c-3.7,0-6.2,0.6-7.5,1.8c-1.4,1.2-2,2.7-2,4.5c0,2,0.8,3.6,2.3,4.8
		c1.6,1.2,3.7,1.8,6.5,1.8c2.6,0,4.9-0.6,7-1.8c2.1-1.2,3.6-3,4.5-5.5l2.4,7.2c-1.1,3.5-3.2,6.1-6.2,7.9
		C830.4,276.7,826.5,277.6,821.8,277.6z M838.2,276.8v-10.5l-1-2.3v-18.8c0-3.3-1-5.9-3-7.8c-2-1.9-5.2-2.8-9.4-2.8
		c-2.9,0-5.7,0.5-8.5,1.4c-2.8,0.9-5.1,2.1-7,3.6l-5.6-10.9c2.9-2.1,6.5-3.7,10.6-4.8c4.1-1.1,8.3-1.7,12.6-1.7
		c8.2,0,14.6,1.9,19.1,5.8c4.5,3.9,6.8,9.9,6.8,18.1v30.7H838.2z"/>
	<path class="st0" d="M866.9,276.8V223h14.9v15.2l-2.1-4.4c1.6-3.8,4.2-6.7,7.7-8.7c3.5-2,7.8-2.9,12.9-2.9v14.4
		c-0.7-0.1-1.3-0.1-1.8-0.1c-0.5,0-1.1-0.1-1.7-0.1c-4.3,0-7.7,1.2-10.3,3.7c-2.6,2.4-4,6.2-4,11.3v25.4H866.9z"/>
	<path class="st0" d="M946.8,300c-4.3,0-7.7-1.1-10.2-3.2c-2.4-2.1-3.7-4.9-3.7-8.4c0-2.6,0.8-5.2,2.4-7.8c1.6-2.6,3.8-4.7,6.8-6.3
		l3.2,2c-1.4,0.4-2.9,0.7-4.5,1c-1.6,0.2-3.3,0.3-5,0.3c-6.1,0-11.5-1.2-16.2-3.6c-4.6-2.4-8.2-5.7-10.8-9.9
		c-2.5-4.2-3.8-8.9-3.8-14.3c0-5.4,1.3-10.2,3.8-14.3c2.5-4.2,5.9-7.4,10.3-9.8c4.3-2.4,9.2-3.5,14.7-3.5c5.3,0,10,1.1,14.3,3.3
		c4.2,2.2,7.6,5.4,10,9.6c2.5,4.2,3.7,9.2,3.7,15c0,0.6,0,1.3-0.1,2c-0.1,0.8-0.1,1.5-0.2,2.2h-43.7v-9.1h35.5l-6,2.7
		c0-2.8-0.6-5.2-1.7-7.3c-1.1-2.1-2.7-3.7-4.7-4.8c-2-1.2-4.3-1.8-7-1.8c-2.7,0-5,0.6-7,1.8c-2,1.2-3.6,2.8-4.8,4.9
		c-1.1,2.1-1.7,4.6-1.7,7.5v2.4c0,2.9,0.7,5.5,2,7.8c1.3,2.2,3.1,3.9,5.5,5.1c2.4,1.2,5.1,1.8,8.3,1.8c2.9,0,5.4-0.4,7.5-1.3
		c2.2-0.9,4.2-2.2,6-3.9l8.4,9c-0.6,0.7-1.2,1.3-1.9,1.9c-0.7,0.6-1.4,1.2-2.2,1.7c-2.9,2.2-5.2,4.1-6.8,5.8
		c-1.6,1.7-2.8,3.2-3.3,4.6c-0.6,1.4-0.9,2.7-0.9,4c0,1.6,0.5,2.8,1.6,3.8c1.1,0.9,2.5,1.3,4.2,1.3c1,0,2-0.1,3.1-0.5
		c1.1-0.3,2-0.6,2.8-1l2.3,7.1c-1.3,0.7-2.8,1.2-4.6,1.6C950.5,299.8,948.6,300,946.8,300z"/>
</g>
<g>
	<path class="st0" d="M511,354v-35.5h14.7c1.5,0,2.9,0.3,4.2,1c1.3,0.6,2.4,1.5,3.3,2.6c0.9,1.1,1.7,2.3,2.2,3.6
		c0.5,1.3,0.8,2.7,0.8,4c0,1.9-0.4,3.8-1.3,5.5c-0.8,1.7-2,3.1-3.6,4.2c-1.5,1.1-3.3,1.6-5.4,1.6h-11.5V354H511z M514.5,337.8h11.3
		c1.4,0,2.6-0.4,3.7-1.1c1-0.8,1.8-1.8,2.4-3s0.9-2.6,0.9-4c0-1.5-0.3-2.8-1-4.1c-0.7-1.2-1.5-2.2-2.6-2.9c-1.1-0.7-2.3-1.1-3.6-1.1
		h-11V337.8z"/>
	<path class="st0" d="M552,354.5c-1.9,0-3.6-0.4-5.2-1.1c-1.6-0.7-3-1.7-4.1-2.9c-1.2-1.2-2-2.7-2.7-4.3c-0.6-1.6-1-3.3-1-5.1
		c0-1.9,0.3-3.6,1-5.2c0.6-1.6,1.5-3,2.7-4.3s2.5-2.2,4.1-2.9c1.6-0.7,3.3-1.1,5.2-1.1c1.9,0,3.6,0.4,5.1,1.1
		c1.6,0.7,2.9,1.7,4.1,2.9c1.2,1.2,2.1,2.7,2.7,4.3c0.6,1.6,1,3.3,1,5.2c0,1.8-0.3,3.5-1,5.1c-0.6,1.6-1.5,3-2.7,4.3
		c-1.1,1.2-2.5,2.2-4.1,2.9C555.7,354.1,553.9,354.5,552,354.5z M542.6,341.2c0,1.9,0.4,3.7,1.3,5.2c0.9,1.6,2,2.8,3.4,3.7
		s3,1.4,4.8,1.4s3.3-0.5,4.8-1.4s2.6-2.2,3.5-3.8c0.9-1.6,1.3-3.4,1.3-5.2c0-1.9-0.4-3.7-1.3-5.3c-0.9-1.6-2-2.8-3.5-3.8
		s-3-1.4-4.8-1.4s-3.3,0.5-4.7,1.4c-1.4,1-2.6,2.2-3.4,3.8C543,337.5,542.6,339.2,542.6,341.2z"/>
	<path class="st0" d="M568.9,341.1c0-2.5,0.5-4.7,1.5-6.7c1-2,2.4-3.7,4.2-4.9s3.8-1.8,6.2-1.8c2.2,0,4.1,0.6,5.8,1.7s3.1,2.5,4,4.2
		v-16h3.4v32.4c0,0.5,0.1,0.8,0.3,1c0.2,0.2,0.5,0.3,0.9,0.4v2.7c-0.7,0.1-1.2,0.1-1.5,0.1c-0.7,0-1.3-0.3-1.8-0.8
		c-0.5-0.5-0.8-1.1-0.8-1.8V349c-1,1.7-2.4,3-4.2,4c-1.8,1-3.6,1.5-5.5,1.5c-1.8,0-3.5-0.4-5-1.1s-2.8-1.7-3.9-3
		c-1.1-1.3-2-2.7-2.6-4.3C569.2,344.5,568.9,342.8,568.9,341.1z M590.7,345.1v-8c-0.4-1.2-1.1-2.3-2.1-3.3c-1-1-2.1-1.8-3.3-2.3
		c-1.2-0.6-2.4-0.9-3.6-0.9c-1.4,0-2.7,0.3-3.8,0.9c-1.1,0.6-2.1,1.4-2.9,2.4c-0.8,1-1.4,2.1-1.9,3.4c-0.4,1.3-0.7,2.5-0.7,3.9
		c0,1.4,0.2,2.7,0.7,4s1.2,2.4,2.1,3.4c0.9,1,1.9,1.7,3.1,2.3c1.2,0.5,2.4,0.8,3.8,0.8c0.9,0,1.8-0.2,2.7-0.5
		c0.9-0.3,1.8-0.8,2.7-1.4c0.8-0.6,1.6-1.3,2.1-2.1C590.2,346.8,590.5,346,590.7,345.1z"/>
	<path class="st0" d="M620.4,354l-9.6-13.3l-5.5,5.2v8.1h-3.4v-36.5h3.4v24.7l14.8-14.2h3.8L613,338.7l11,15.3H620.4z"/>
	<path class="st0" d="M626.2,339.8l-1.2-2l12.2-9.8l1.2,2L626.2,339.8z M629.4,317.5h3.4v30.8c0,1.3,0.2,2.2,0.7,2.6s1,0.6,1.7,0.6
		c0.6,0,1.2-0.1,1.8-0.2c0.6-0.1,1.1-0.3,1.5-0.4l0.6,2.8c-0.6,0.3-1.4,0.5-2.3,0.7c-0.9,0.2-1.7,0.3-2.4,0.3
		c-1.5,0-2.8-0.5-3.7-1.4s-1.4-2.1-1.4-3.7V317.5z"/>
	<path class="st0" d="M640.8,346.5c0-1.6,0.5-3,1.4-4.2c0.9-1.2,2.2-2.1,3.9-2.7c1.7-0.6,3.6-1,5.7-1c1.3,0,2.6,0.1,3.9,0.3
		s2.6,0.5,3.7,0.9v-2.2c0-2.2-0.7-3.9-2-5.2s-3.1-1.9-5.4-1.9c-1.4,0-2.8,0.3-4.1,0.8c-1.4,0.5-2.8,1.3-4.2,2.3l-1.3-2.4
		c1.7-1.2,3.4-2,5-2.6c1.6-0.6,3.3-0.9,5-0.9c3.2,0,5.7,0.9,7.6,2.7s2.8,4.3,2.8,7.6v12c0,0.5,0.1,0.8,0.3,1s0.5,0.3,1,0.4v2.7
		c-0.4,0-0.7,0.1-1,0.1c-0.3,0-0.5,0-0.6,0c-0.8,0-1.5-0.3-1.9-0.8c-0.4-0.5-0.7-1-0.7-1.6l0-1.9c-1.2,1.5-2.7,2.7-4.5,3.5
		c-1.9,0.8-3.8,1.2-5.7,1.2c-1.7,0-3.2-0.4-4.5-1.1c-1.3-0.7-2.4-1.7-3.1-2.9C641.1,349.3,640.8,348,640.8,346.5z M658.2,348.5
		c0.4-0.5,0.7-0.9,0.9-1.3s0.3-0.8,0.3-1.1v-3.8c-1.1-0.4-2.3-0.8-3.5-1s-2.4-0.3-3.7-0.3c-2.4,0-4.4,0.5-5.9,1.4s-2.3,2.3-2.3,3.9
		c0,1,0.3,1.9,0.8,2.7c0.5,0.8,1.2,1.5,2.2,2.1c1,0.5,2.1,0.8,3.4,0.8c1.6,0,3.2-0.3,4.6-0.9C656.4,350.3,657.5,349.5,658.2,348.5z"
		/>
	<path class="st0" d="M668.4,341.1c0-2.5,0.5-4.7,1.5-6.7c1-2,2.4-3.7,4.2-4.9s3.8-1.8,6.2-1.8c2.2,0,4.1,0.6,5.8,1.7s3.1,2.5,4,4.2
		v-16h3.4v32.4c0,0.5,0.1,0.8,0.3,1c0.2,0.2,0.5,0.3,0.9,0.4v2.7c-0.7,0.1-1.2,0.1-1.5,0.1c-0.7,0-1.3-0.3-1.8-0.8
		c-0.5-0.5-0.8-1.1-0.8-1.8V349c-1,1.7-2.4,3-4.2,4c-1.8,1-3.6,1.5-5.5,1.5c-1.8,0-3.5-0.4-5-1.1s-2.8-1.7-3.9-3
		c-1.1-1.3-2-2.7-2.6-4.3C668.7,344.5,668.4,342.8,668.4,341.1z M690.1,345.1v-8c-0.4-1.2-1.1-2.3-2.1-3.3c-1-1-2.1-1.8-3.3-2.3
		c-1.2-0.6-2.4-0.9-3.6-0.9c-1.4,0-2.7,0.3-3.8,0.9c-1.1,0.6-2.1,1.4-2.9,2.4c-0.8,1-1.4,2.1-1.9,3.4c-0.4,1.3-0.7,2.5-0.7,3.9
		c0,1.4,0.2,2.7,0.7,4s1.2,2.4,2.1,3.4c0.9,1,1.9,1.7,3.1,2.3c1.2,0.5,2.4,0.8,3.8,0.8c0.9,0,1.8-0.2,2.7-0.5
		c0.9-0.3,1.8-0.8,2.7-1.4c0.8-0.6,1.6-1.3,2.1-2.1C689.6,346.8,690,346,690.1,345.1z"/>
	<path class="st0" d="M702.7,362c0.5,0,0.9,0.1,1.3,0.1c0.4,0,0.8,0,1-0.1c0.4-0.1,0.8-0.3,1.2-0.7c0.4-0.4,0.8-1.2,1.3-2.3
		c0.5-1.1,1.2-2.8,2.1-5l-11.3-26h3.6l9.6,22.5l8.8-22.5h3.4l-13.5,33.5c-0.2,0.6-0.6,1.2-1,1.8c-0.5,0.5-1,1-1.7,1.3
		c-0.7,0.3-1.5,0.5-2.5,0.5c-0.3,0-0.6,0-0.9,0c-0.3,0-0.7-0.1-1.1-0.1V362z"/>
	<path class="st0" d="M739.7,322.5v-5h3.4v5H739.7z M739.7,354v-26h3.4v26H739.7z"/>
	<path class="st0" d="M761.3,346.5c0-1.6,0.5-3,1.4-4.2c0.9-1.2,2.2-2.1,3.9-2.7c1.7-0.6,3.6-1,5.7-1c1.3,0,2.6,0.1,3.9,0.3
		s2.6,0.5,3.7,0.9v-2.2c0-2.2-0.7-3.9-2-5.2s-3.1-1.9-5.4-1.9c-1.4,0-2.8,0.3-4.1,0.8c-1.4,0.5-2.8,1.3-4.2,2.3l-1.3-2.4
		c1.7-1.2,3.4-2,5-2.6c1.6-0.6,3.3-0.9,5-0.9c3.2,0,5.7,0.9,7.6,2.7s2.8,4.3,2.8,7.6v12c0,0.5,0.1,0.8,0.3,1s0.5,0.3,1,0.4v2.7
		c-0.4,0-0.7,0.1-1,0.1c-0.3,0-0.5,0-0.6,0c-0.8,0-1.5-0.3-1.9-0.8c-0.4-0.5-0.7-1-0.7-1.6l0-1.9c-1.2,1.5-2.7,2.7-4.5,3.5
		c-1.9,0.8-3.8,1.2-5.7,1.2c-1.7,0-3.2-0.4-4.5-1.1c-1.3-0.7-2.4-1.7-3.1-2.9C761.6,349.3,761.3,348,761.3,346.5z M778.7,348.5
		c0.4-0.5,0.7-0.9,0.9-1.3s0.3-0.8,0.3-1.1v-3.8c-1.1-0.4-2.3-0.8-3.5-1s-2.4-0.3-3.7-0.3c-2.4,0-4.4,0.5-5.9,1.4s-2.3,2.3-2.3,3.9
		c0,1,0.3,1.9,0.8,2.7c0.5,0.8,1.2,1.5,2.2,2.1c1,0.5,2.1,0.8,3.4,0.8c1.6,0,3.2-0.3,4.6-0.9C776.9,350.3,777.9,349.5,778.7,348.5z"
		/>
	<path class="st0" d="M803.6,331c-2.3,0.1-4.3,0.7-6,1.9c-1.7,1.2-2.9,2.9-3.6,5V354h-3.4v-26h3.2v6.2c0.9-1.8,2.1-3.3,3.6-4.5
		c1.5-1.1,3.1-1.8,4.7-1.9c0.3,0,0.6,0,0.9,0s0.5,0,0.6,0V331z"/>
	<path class="st0" d="M806,346.5c0-1.6,0.5-3,1.4-4.2c0.9-1.2,2.2-2.1,3.9-2.7c1.7-0.6,3.6-1,5.7-1c1.3,0,2.6,0.1,3.9,0.3
		s2.6,0.5,3.7,0.9v-2.2c0-2.2-0.7-3.9-2-5.2s-3.1-1.9-5.4-1.9c-1.4,0-2.8,0.3-4.1,0.8c-1.4,0.5-2.8,1.3-4.2,2.3l-1.3-2.4
		c1.7-1.2,3.4-2,5-2.6c1.6-0.6,3.3-0.9,5-0.9c3.2,0,5.7,0.9,7.6,2.7s2.8,4.3,2.8,7.6v12c0,0.5,0.1,0.8,0.3,1s0.5,0.3,1,0.4v2.7
		c-0.4,0-0.7,0.1-1,0.1c-0.3,0-0.5,0-0.6,0c-0.8,0-1.5-0.3-1.9-0.8c-0.4-0.5-0.7-1-0.7-1.6l0-1.9c-1.2,1.5-2.7,2.7-4.5,3.5
		c-1.9,0.8-3.8,1.2-5.7,1.2c-1.7,0-3.2-0.4-4.5-1.1c-1.3-0.7-2.4-1.7-3.1-2.9C806.3,349.3,806,348,806,346.5z M823.4,348.5
		c0.4-0.5,0.7-0.9,0.9-1.3s0.3-0.8,0.3-1.1v-3.8c-1.1-0.4-2.3-0.8-3.5-1s-2.4-0.3-3.7-0.3c-2.4,0-4.4,0.5-5.9,1.4s-2.3,2.3-2.3,3.9
		c0,1,0.3,1.9,0.8,2.7c0.5,0.8,1.2,1.5,2.2,2.1c1,0.5,2.1,0.8,3.4,0.8c1.6,0,3.2-0.3,4.6-0.9C821.6,350.3,822.6,349.5,823.4,348.5z"
		/>
	<path class="st0" d="M857.2,354h-3.4v-14.5c0-3-0.5-5.3-1.3-6.7c-0.9-1.4-2.3-2.1-4.3-2.1c-1.3,0-2.7,0.3-4,1
		c-1.3,0.6-2.4,1.5-3.4,2.6c-1,1.1-1.7,2.4-2.1,3.8V354h-3.4v-26h3.1v5.9c0.7-1.3,1.6-2.4,2.8-3.3s2.4-1.7,3.9-2.2
		c1.4-0.5,2.9-0.8,4.5-0.8c1.4,0,2.6,0.3,3.6,0.8c1,0.5,1.8,1.3,2.4,2.3c0.6,1,1,2.2,1.3,3.5c0.3,1.4,0.4,2.9,0.4,4.6V354z"/>
	<path class="st0" d="M862.3,351.7l17.5-21.1h-17V328h20.9v2.3l-17.3,21.1h17.3v2.5h-21.3V351.7z M871.9,322.3v-4.8h3.1v4.8H871.9z"
		/>
	<path class="st0" d="M899.8,354.5c-1.9,0-3.6-0.4-5.2-1.1c-1.6-0.7-3-1.7-4.1-2.9c-1.2-1.2-2.1-2.7-2.7-4.3c-0.6-1.6-1-3.4-1-5.2
		c0-2.4,0.6-4.6,1.7-6.7c1.1-2,2.7-3.6,4.6-4.8s4.2-1.8,6.7-1.8c2.6,0,4.8,0.6,6.7,1.8c1.9,1.2,3.4,2.8,4.5,4.8
		c1.1,2,1.6,4.2,1.6,6.6c0,0.3,0,0.5,0,0.8c0,0.2,0,0.4,0,0.6h-22.3c0.2,1.9,0.7,3.5,1.6,5c0.9,1.4,2,2.6,3.5,3.4
		c1.4,0.8,3,1.3,4.6,1.3c1.7,0,3.3-0.4,4.8-1.3c1.5-0.9,2.6-2,3.2-3.4l2.9,0.8c-0.5,1.2-1.3,2.3-2.4,3.3c-1.1,1-2.4,1.8-3.9,2.3
		C903.1,354.2,901.5,354.5,899.8,354.5z M890.2,339.8h19.3c-0.1-1.9-0.6-3.5-1.5-4.9c-0.9-1.4-2-2.5-3.5-3.3s-3-1.2-4.7-1.2
		s-3.3,0.4-4.7,1.2c-1.4,0.8-2.5,1.9-3.4,3.4C890.8,336.3,890.3,338,890.2,339.8z"/>
	<path class="st0" d="M928.9,341.1c0-2.5,0.5-4.7,1.5-6.7c1-2,2.4-3.7,4.2-4.9s3.8-1.8,6.2-1.8c2.2,0,4.1,0.6,5.8,1.7s3.1,2.5,4,4.2
		v-16h3.4v32.4c0,0.5,0.1,0.8,0.3,1c0.2,0.2,0.5,0.3,0.9,0.4v2.7c-0.7,0.1-1.2,0.1-1.5,0.1c-0.7,0-1.3-0.3-1.8-0.8
		c-0.5-0.5-0.8-1.1-0.8-1.8V349c-1,1.7-2.4,3-4.2,4c-1.8,1-3.6,1.5-5.5,1.5c-1.8,0-3.5-0.4-5-1.1s-2.8-1.7-3.9-3
		c-1.1-1.3-2-2.7-2.6-4.3C929.2,344.5,928.9,342.8,928.9,341.1z M950.6,345.1v-8c-0.4-1.2-1.1-2.3-2.1-3.3c-1-1-2.1-1.8-3.3-2.3
		c-1.2-0.6-2.4-0.9-3.6-0.9c-1.4,0-2.7,0.3-3.8,0.9c-1.1,0.6-2.1,1.4-2.9,2.4c-0.8,1-1.4,2.1-1.9,3.4c-0.4,1.3-0.7,2.5-0.7,3.9
		c0,1.4,0.2,2.7,0.7,4s1.2,2.4,2.1,3.4c0.9,1,1.9,1.7,3.1,2.3c1.2,0.5,2.4,0.8,3.8,0.8c0.9,0,1.8-0.2,2.7-0.5
		c0.9-0.3,1.8-0.8,2.7-1.4c0.8-0.6,1.6-1.3,2.1-2.1C950.1,346.8,950.5,346,950.6,345.1z"/>
	<path class="st0" d="M972.8,354.5c-1.9,0-3.6-0.4-5.2-1.1c-1.6-0.7-3-1.7-4.1-2.9c-1.2-1.2-2-2.7-2.7-4.3c-0.6-1.6-1-3.3-1-5.1
		c0-1.9,0.3-3.6,1-5.2c0.6-1.6,1.5-3,2.7-4.3s2.5-2.2,4.1-2.9c1.6-0.7,3.3-1.1,5.2-1.1c1.9,0,3.6,0.4,5.1,1.1
		c1.6,0.7,2.9,1.7,4.1,2.9c1.2,1.2,2.1,2.7,2.7,4.3c0.6,1.6,1,3.3,1,5.2c0,1.8-0.3,3.5-1,5.1c-0.6,1.6-1.5,3-2.7,4.3
		c-1.1,1.2-2.5,2.2-4.1,2.9C976.5,354.1,974.7,354.5,972.8,354.5z M963.4,341.2c0,1.9,0.4,3.7,1.3,5.2c0.9,1.6,2,2.8,3.4,3.7
		s3,1.4,4.8,1.4s3.3-0.5,4.8-1.4s2.6-2.2,3.5-3.8c0.9-1.6,1.3-3.4,1.3-5.2c0-1.9-0.4-3.7-1.3-5.3c-0.9-1.6-2-2.8-3.5-3.8
		s-3-1.4-4.8-1.4s-3.3,0.5-4.7,1.4c-1.4,1-2.6,2.2-3.4,3.8C963.8,337.5,963.4,339.2,963.4,341.2z"/>
	<path class="st0" d="M1004.8,354.5c-2.2,0-4.1-0.6-5.8-1.7s-3.1-2.5-4.1-4.2v16h-3.4V328h3v5.1c1-1.6,2.4-2.9,4.2-4
		c1.7-1,3.6-1.5,5.5-1.5c1.8,0,3.5,0.4,5,1.1c1.5,0.7,2.8,1.7,3.9,3c1.1,1.3,2,2.7,2.6,4.3c0.6,1.6,0.9,3.3,0.9,5
		c0,2.4-0.5,4.6-1.5,6.7c-1,2-2.4,3.7-4.1,4.9C1009.2,353.9,1007.1,354.5,1004.8,354.5z M1003.8,351.5c1.4,0,2.7-0.3,3.9-0.9
		c1.1-0.6,2.1-1.4,2.9-2.4c0.8-1,1.4-2.1,1.9-3.4c0.4-1.2,0.7-2.5,0.7-3.8c0-1.4-0.2-2.7-0.7-4s-1.2-2.4-2.1-3.3
		c-0.9-1-1.9-1.7-3.1-2.3c-1.2-0.6-2.4-0.8-3.8-0.8c-0.9,0-1.8,0.2-2.7,0.5c-0.9,0.3-1.8,0.8-2.7,1.4c-0.9,0.6-1.6,1.3-2.1,2.1
		c-0.6,0.8-0.9,1.6-1,2.4v8c0.5,1.2,1.3,2.3,2.1,3.3c0.9,1,1.9,1.8,3.1,2.3C1001.3,351.2,1002.5,351.5,1003.8,351.5z"/>
	<path class="st0" d="M1020.2,346.5c0-1.6,0.5-3,1.4-4.2c0.9-1.2,2.2-2.1,3.9-2.7c1.7-0.6,3.6-1,5.7-1c1.3,0,2.6,0.1,3.9,0.3
		s2.6,0.5,3.7,0.9v-2.2c0-2.2-0.7-3.9-2-5.2s-3.1-1.9-5.4-1.9c-1.4,0-2.8,0.3-4.1,0.8c-1.4,0.5-2.8,1.3-4.2,2.3l-1.3-2.4
		c1.7-1.2,3.4-2,5-2.6c1.6-0.6,3.3-0.9,5-0.9c3.2,0,5.7,0.9,7.6,2.7s2.8,4.3,2.8,7.6v12c0,0.5,0.1,0.8,0.3,1s0.5,0.3,1,0.4v2.7
		c-0.4,0-0.7,0.1-1,0.1c-0.3,0-0.5,0-0.6,0c-0.8,0-1.5-0.3-1.9-0.8c-0.4-0.5-0.7-1-0.7-1.6l0-1.9c-1.2,1.5-2.7,2.7-4.5,3.5
		c-1.9,0.8-3.8,1.2-5.7,1.2c-1.7,0-3.2-0.4-4.5-1.1c-1.3-0.7-2.4-1.7-3.1-2.9C1020.6,349.3,1020.2,348,1020.2,346.5z M1037.7,348.5
		c0.4-0.5,0.7-0.9,0.9-1.3s0.3-0.8,0.3-1.1v-3.8c-1.1-0.4-2.3-0.8-3.5-1s-2.4-0.3-3.7-0.3c-2.4,0-4.4,0.5-5.9,1.4s-2.3,2.3-2.3,3.9
		c0,1,0.3,1.9,0.8,2.7c0.5,0.8,1.2,1.5,2.2,2.1c1,0.5,2.1,0.8,3.4,0.8c1.6,0,3.2-0.3,4.6-0.9
		C1035.8,350.3,1036.9,349.5,1037.7,348.5z"/>
	<path class="st0" d="M1058.1,354.5c-2.1,0-4.1-0.3-6-1s-3.4-1.8-4.8-3.2l1.4-2.4c1.5,1.4,2.9,2.4,4.4,3c1.5,0.6,3.1,0.9,4.7,0.9
		c2,0,3.7-0.4,4.9-1.2s1.9-2,1.9-3.5c0-1-0.3-1.8-0.9-2.4c-0.6-0.5-1.5-1-2.7-1.3c-1.1-0.3-2.5-0.7-4.1-1.1c-1.8-0.5-3.3-1-4.5-1.6
		c-1.2-0.5-2.1-1.2-2.8-2.1c-0.6-0.8-0.9-1.9-0.9-3.3c0-1.7,0.4-3.1,1.3-4.2s2-2,3.5-2.5c1.5-0.6,3.1-0.9,5-0.9c2,0,3.8,0.3,5.3,0.9
		c1.5,0.6,2.8,1.5,3.8,2.7l-1.7,2.3c-0.9-1.1-2-1.9-3.3-2.4c-1.3-0.5-2.7-0.8-4.3-0.8c-1.1,0-2.1,0.1-3.1,0.4s-1.8,0.7-2.4,1.4
		c-0.6,0.6-0.9,1.5-0.9,2.7c0,0.9,0.2,1.6,0.7,2.2c0.5,0.5,1.2,0.9,2.1,1.3s2.1,0.7,3.5,1.1c2,0.5,3.7,1.1,5.2,1.6
		c1.5,0.5,2.6,1.3,3.4,2.1c0.8,0.9,1.2,2.1,1.2,3.6c0,2.4-0.9,4.3-2.8,5.7S1061.1,354.5,1058.1,354.5z"/>
	<path class="st0" d="M1084.8,354.5c-1.9,0-3.6-0.4-5.2-1.1c-1.6-0.7-3-1.7-4.1-2.9c-1.2-1.2-2-2.7-2.7-4.3c-0.6-1.6-1-3.3-1-5.1
		c0-1.9,0.3-3.6,1-5.2c0.6-1.6,1.5-3,2.7-4.3s2.5-2.2,4.1-2.9c1.6-0.7,3.3-1.1,5.2-1.1c1.9,0,3.6,0.4,5.1,1.1
		c1.6,0.7,2.9,1.7,4.1,2.9c1.2,1.2,2.1,2.7,2.7,4.3c0.6,1.6,1,3.3,1,5.2c0,1.8-0.3,3.5-1,5.1c-0.6,1.6-1.5,3-2.7,4.3
		c-1.1,1.2-2.5,2.2-4.1,2.9C1088.5,354.1,1086.7,354.5,1084.8,354.5z M1075.4,341.2c0,1.9,0.4,3.7,1.3,5.2c0.9,1.6,2,2.8,3.4,3.7
		s3,1.4,4.8,1.4s3.3-0.5,4.8-1.4s2.6-2.2,3.5-3.8c0.9-1.6,1.3-3.4,1.3-5.2c0-1.9-0.4-3.7-1.3-5.3c-0.9-1.6-2-2.8-3.5-3.8
		s-3-1.4-4.8-1.4s-3.3,0.5-4.7,1.4c-1.4,1-2.6,2.2-3.4,3.8C1075.8,337.5,1075.4,339.2,1075.4,341.2z"/>
	<path class="st0" d="M1135.4,328h3.4l-11.2,26h-3l-5.5-12.9l-5.4,12.9h-3l-11.2-26h3.3l9.5,22.5l4.8-11.7l-4.4-10.7h3l3.3,8.4
		l3.4-8.4h3l-4.4,10.7l4.8,11.7L1135.4,328z"/>
	<path class="st0" d="M1140.5,346.5c0-1.6,0.5-3,1.4-4.2c0.9-1.2,2.2-2.1,3.9-2.7c1.7-0.6,3.6-1,5.7-1c1.3,0,2.6,0.1,3.9,0.3
		s2.6,0.5,3.7,0.9v-2.2c0-2.2-0.7-3.9-2-5.2s-3.1-1.9-5.4-1.9c-1.4,0-2.8,0.3-4.1,0.8c-1.4,0.5-2.8,1.3-4.2,2.3l-1.3-2.4
		c1.7-1.2,3.4-2,5-2.6c1.6-0.6,3.3-0.9,5-0.9c3.2,0,5.7,0.9,7.6,2.7s2.8,4.3,2.8,7.6v12c0,0.5,0.1,0.8,0.3,1s0.5,0.3,1,0.4v2.7
		c-0.4,0-0.7,0.1-1,0.1c-0.3,0-0.5,0-0.6,0c-0.8,0-1.5-0.3-1.9-0.8c-0.4-0.5-0.7-1-0.7-1.6l0-1.9c-1.2,1.5-2.7,2.7-4.5,3.5
		c-1.9,0.8-3.8,1.2-5.7,1.2c-1.7,0-3.2-0.4-4.5-1.1c-1.3-0.7-2.4-1.7-3.1-2.9C1140.8,349.3,1140.5,348,1140.5,346.5z M1157.9,348.5
		c0.4-0.5,0.7-0.9,0.9-1.3s0.3-0.8,0.3-1.1v-3.8c-1.1-0.4-2.3-0.8-3.5-1s-2.4-0.3-3.7-0.3c-2.4,0-4.4,0.5-5.9,1.4s-2.3,2.3-2.3,3.9
		c0,1,0.3,1.9,0.8,2.7c0.5,0.8,1.2,1.5,2.2,2.1c1,0.5,2.1,0.8,3.4,0.8c1.6,0,3.2-0.3,4.6-0.9
		C1156.1,350.3,1157.1,349.5,1157.9,348.5z"/>
	<path class="st0" d="M1191.7,354h-3.4v-14.5c0-3-0.5-5.3-1.3-6.7c-0.9-1.4-2.3-2.1-4.3-2.1c-1.3,0-2.7,0.3-4,1
		c-1.3,0.6-2.4,1.5-3.4,2.6c-1,1.1-1.7,2.4-2.1,3.8V354h-3.4v-26h3.1v5.9c0.7-1.3,1.6-2.4,2.8-3.3s2.4-1.7,3.9-2.2
		c1.4-0.5,2.9-0.8,4.5-0.8c1.4,0,2.6,0.3,3.6,0.8c1,0.5,1.8,1.3,2.4,2.3c0.6,1,1,2.2,1.3,3.5c0.3,1.4,0.4,2.9,0.4,4.6V354z"/>
	<path class="st0" d="M1210.2,354.5c-1.9,0-3.6-0.4-5.2-1.1c-1.6-0.7-3-1.7-4.1-2.9c-1.2-1.2-2.1-2.7-2.7-4.3c-0.6-1.6-1-3.4-1-5.2
		c0-2.4,0.6-4.6,1.7-6.7c1.1-2,2.7-3.6,4.6-4.8s4.2-1.8,6.7-1.8c2.6,0,4.8,0.6,6.7,1.8c1.9,1.2,3.4,2.8,4.5,4.8
		c1.1,2,1.6,4.2,1.6,6.6c0,0.3,0,0.5,0,0.8c0,0.2,0,0.4,0,0.6h-22.3c0.2,1.9,0.7,3.5,1.6,5c0.9,1.4,2,2.6,3.5,3.4
		c1.4,0.8,3,1.3,4.6,1.3c1.7,0,3.3-0.4,4.8-1.3c1.5-0.9,2.6-2,3.2-3.4l2.9,0.8c-0.5,1.2-1.3,2.3-2.4,3.3c-1.1,1-2.4,1.8-3.9,2.3
		C1213.5,354.2,1211.9,354.5,1210.2,354.5z M1200.6,339.8h19.3c-0.1-1.9-0.6-3.5-1.5-4.9c-0.9-1.4-2-2.5-3.5-3.3s-3-1.2-4.7-1.2
		s-3.3,0.4-4.7,1.2c-1.4,0.8-2.5,1.9-3.4,3.4C1201.3,336.3,1200.7,338,1200.6,339.8z"/>
	<path class="st0" d="M508.6,401.1c0-2.5,0.5-4.7,1.5-6.7c1-2,2.4-3.7,4.2-4.9s3.8-1.8,6.2-1.8c2.2,0,4.1,0.6,5.8,1.7s3.1,2.5,4,4.2
		v-16h3.4v32.4c0,0.5,0.1,0.8,0.3,1c0.2,0.2,0.5,0.3,0.9,0.4v2.7c-0.7,0.1-1.2,0.1-1.5,0.1c-0.7,0-1.3-0.3-1.8-0.8
		c-0.5-0.5-0.8-1.1-0.8-1.8V409c-1,1.7-2.4,3-4.2,4c-1.8,1-3.6,1.5-5.5,1.5c-1.8,0-3.5-0.4-5-1.1s-2.8-1.7-3.9-3
		c-1.1-1.3-2-2.7-2.6-4.3C508.9,404.5,508.6,402.8,508.6,401.1z M530.3,405.1v-8c-0.4-1.2-1.1-2.3-2.1-3.3c-1-1-2.1-1.8-3.3-2.3
		c-1.2-0.6-2.4-0.9-3.6-0.9c-1.4,0-2.7,0.3-3.8,0.9c-1.1,0.6-2.1,1.4-2.9,2.4c-0.8,1-1.4,2.1-1.9,3.4c-0.4,1.3-0.7,2.5-0.7,3.9
		c0,1.4,0.2,2.7,0.7,4s1.2,2.4,2.1,3.4c0.9,1,1.9,1.7,3.1,2.3c1.2,0.5,2.4,0.8,3.8,0.8c0.9,0,1.8-0.2,2.7-0.5
		c0.9-0.3,1.8-0.8,2.7-1.4c0.8-0.6,1.6-1.3,2.1-2.1C529.8,406.8,530.2,406,530.3,405.1z"/>
	<path class="st0" d="M552.5,414.5c-1.9,0-3.6-0.4-5.2-1.1c-1.6-0.7-3-1.7-4.1-2.9c-1.2-1.2-2-2.7-2.7-4.3c-0.6-1.6-1-3.3-1-5.1
		c0-1.9,0.3-3.6,1-5.2c0.6-1.6,1.5-3,2.7-4.3s2.5-2.2,4.1-2.9c1.6-0.7,3.3-1.1,5.2-1.1c1.9,0,3.6,0.4,5.1,1.1
		c1.6,0.7,2.9,1.7,4.1,2.9c1.2,1.2,2.1,2.7,2.7,4.3c0.6,1.6,1,3.3,1,5.2c0,1.8-0.3,3.5-1,5.1c-0.6,1.6-1.5,3-2.7,4.3
		c-1.1,1.2-2.5,2.2-4.1,2.9C556.2,414.1,554.4,414.5,552.5,414.5z M543.1,401.2c0,1.9,0.4,3.7,1.3,5.2c0.9,1.6,2,2.8,3.4,3.7
		s3,1.4,4.8,1.4s3.3-0.5,4.8-1.4s2.6-2.2,3.5-3.8c0.9-1.6,1.3-3.4,1.3-5.2c0-1.9-0.4-3.7-1.3-5.3c-0.9-1.6-2-2.8-3.5-3.8
		s-3-1.4-4.8-1.4s-3.3,0.5-4.7,1.4c-1.4,1-2.6,2.2-3.4,3.8C543.5,397.5,543.1,399.2,543.1,401.2z"/>
	<path class="st0" d="M608.4,381.6h-12.7V414h-3.5v-32.4h-12.7v-3.1h28.8V381.6z"/>
	<path class="st0" d="M641.7,388h3.4l-11.2,26h-3l-5.5-12.9l-5.4,12.9h-3l-11.2-26h3.3l9.5,22.5l4.8-11.7l-4.4-10.7h3l3.3,8.4
		l3.4-8.4h3l-4.4,10.7l4.8,11.7L641.7,388z"/>
	<path class="st0" d="M659.8,414.5c-1.9,0-3.6-0.4-5.2-1.1c-1.6-0.7-3-1.7-4.1-2.9c-1.2-1.2-2-2.7-2.7-4.3c-0.6-1.6-1-3.3-1-5.1
		c0-1.9,0.3-3.6,1-5.2c0.6-1.6,1.5-3,2.7-4.3s2.5-2.2,4.1-2.9c1.6-0.7,3.3-1.1,5.2-1.1c1.9,0,3.6,0.4,5.1,1.1
		c1.6,0.7,2.9,1.7,4.1,2.9c1.2,1.2,2.1,2.7,2.7,4.3c0.6,1.6,1,3.3,1,5.2c0,1.8-0.3,3.5-1,5.1c-0.6,1.6-1.5,3-2.7,4.3
		c-1.1,1.2-2.5,2.2-4.1,2.9C663.4,414.1,661.7,414.5,659.8,414.5z M650.3,401.2c0,1.9,0.4,3.7,1.3,5.2c0.9,1.6,2,2.8,3.4,3.7
		s3,1.4,4.8,1.4s3.3-0.5,4.8-1.4s2.6-2.2,3.5-3.8c0.9-1.6,1.3-3.4,1.3-5.2c0-1.9-0.4-3.7-1.3-5.3c-0.9-1.6-2-2.8-3.5-3.8
		s-3-1.4-4.8-1.4s-3.3,0.5-4.7,1.4c-1.4,1-2.6,2.2-3.4,3.8C650.8,397.5,650.3,399.2,650.3,401.2z"/>
	<path class="st0" d="M678.4,382.5v-5h3.4v5H678.4z M678.4,414v-26h3.4v26H678.4z"/>
	<path class="st0" d="M700.6,414.5c-1.9,0-3.6-0.4-5.2-1.1c-1.6-0.7-3-1.7-4.2-3c-1.2-1.3-2.1-2.7-2.8-4.3c-0.6-1.6-1-3.3-1-5.2
		c0-2.5,0.5-4.7,1.6-6.7c1.1-2,2.6-3.6,4.6-4.8c2-1.2,4.2-1.8,6.8-1.8c2.4,0,4.6,0.6,6.5,1.7c1.9,1.1,3.3,2.6,4.1,4.5l-3.3,1.1
		c-0.7-1.3-1.8-2.4-3.1-3.1s-2.8-1.1-4.4-1.1c-1.7,0-3.3,0.4-4.8,1.3c-1.4,0.9-2.6,2.1-3.4,3.7c-0.8,1.6-1.3,3.3-1.3,5.3
		c0,2,0.4,3.7,1.3,5.3c0.9,1.6,2,2.9,3.5,3.8c1.4,0.9,3,1.4,4.8,1.4c1.1,0,2.2-0.2,3.3-0.6c1-0.4,2-0.9,2.8-1.6s1.3-1.4,1.6-2.2
		l3.3,1c-0.5,1.2-1.2,2.3-2.3,3.3c-1.1,1-2.4,1.8-3.8,2.3C703.8,414.2,702.3,414.5,700.6,414.5z"/>
	<path class="st0" d="M738.7,414h-3.4v-14.5c0-2.9-0.5-5.1-1.5-6.6c-1-1.5-2.5-2.2-4.5-2.2c-1.3,0-2.5,0.3-3.8,1
		c-1.3,0.6-2.3,1.5-3.3,2.6c-1,1.1-1.6,2.4-2,3.8V414h-3.4v-36.5h3.4V394c1-1.9,2.5-3.5,4.3-4.6c1.9-1.1,3.8-1.7,5.9-1.7
		c1.5,0,2.8,0.3,3.8,0.8c1.1,0.5,1.9,1.3,2.6,2.3c0.6,1,1.1,2.2,1.4,3.5c0.3,1.3,0.5,2.9,0.5,4.5V414z"/>
	<path class="st0" d="M772,414.5c-2.2,0-4.1-0.6-5.8-1.7s-3.1-2.5-4.1-4.2v16h-3.4V388h3v5.1c1-1.6,2.4-2.9,4.2-4
		c1.7-1,3.6-1.5,5.5-1.5c1.8,0,3.5,0.4,5,1.1c1.5,0.7,2.8,1.7,3.9,3c1.1,1.3,2,2.7,2.6,4.3c0.6,1.6,0.9,3.3,0.9,5
		c0,2.4-0.5,4.6-1.5,6.7c-1,2-2.4,3.7-4.1,4.9C776.4,413.9,774.3,414.5,772,414.5z M771,411.5c1.4,0,2.7-0.3,3.9-0.9
		c1.1-0.6,2.1-1.4,2.9-2.4c0.8-1,1.4-2.1,1.9-3.4c0.4-1.2,0.7-2.5,0.7-3.8c0-1.4-0.2-2.7-0.7-4s-1.2-2.4-2.1-3.3
		c-0.9-1-1.9-1.7-3.1-2.3c-1.2-0.6-2.4-0.8-3.8-0.8c-0.9,0-1.8,0.2-2.7,0.5c-0.9,0.3-1.8,0.8-2.7,1.4c-0.9,0.6-1.6,1.3-2.1,2.1
		c-0.6,0.8-0.9,1.6-1,2.4v8c0.5,1.2,1.3,2.3,2.1,3.3c0.9,1,1.9,1.8,3.1,2.3C768.5,411.2,769.7,411.5,771,411.5z"/>
	<path class="st0" d="M800.6,414.5c-1.9,0-3.6-0.4-5.2-1.1c-1.6-0.7-3-1.7-4.1-2.9c-1.2-1.2-2-2.7-2.7-4.3c-0.6-1.6-1-3.3-1-5.1
		c0-1.9,0.3-3.6,1-5.2c0.6-1.6,1.5-3,2.7-4.3s2.5-2.2,4.1-2.9c1.6-0.7,3.3-1.1,5.2-1.1c1.9,0,3.6,0.4,5.1,1.1
		c1.6,0.7,2.9,1.7,4.1,2.9c1.2,1.2,2.1,2.7,2.7,4.3c0.6,1.6,1,3.3,1,5.2c0,1.8-0.3,3.5-1,5.1c-0.6,1.6-1.5,3-2.7,4.3
		c-1.1,1.2-2.5,2.2-4.1,2.9C804.3,414.1,802.5,414.5,800.6,414.5z M791.2,401.2c0,1.9,0.4,3.7,1.3,5.2c0.9,1.6,2,2.8,3.4,3.7
		s3,1.4,4.8,1.4s3.3-0.5,4.8-1.4s2.6-2.2,3.5-3.8c0.9-1.6,1.3-3.4,1.3-5.2c0-1.9-0.4-3.7-1.3-5.3c-0.9-1.6-2-2.8-3.5-3.8
		s-3-1.4-4.8-1.4s-3.3,0.5-4.7,1.4c-1.4,1-2.6,2.2-3.4,3.8C791.6,397.5,791.2,399.2,791.2,401.2z"/>
	<path class="st0" d="M831.4,413c-0.3,0.1-0.7,0.3-1.3,0.5c-0.6,0.3-1.3,0.5-2,0.7s-1.7,0.3-2.6,0.3c-1,0-1.9-0.2-2.7-0.6
		c-0.8-0.4-1.5-0.9-2-1.7s-0.8-1.7-0.8-2.8v-18.7h-3.6V388h3.6v-8.8h3.4v8.8h6v2.7h-6v17.8c0.1,0.9,0.4,1.6,1,2.1
		c0.6,0.5,1.3,0.7,2.1,0.7c0.9,0,1.8-0.2,2.5-0.5c0.8-0.3,1.2-0.5,1.4-0.7L831.4,413z"/>
	<path class="st0" d="M848.6,391c-2.3,0.1-4.3,0.7-6,1.9c-1.7,1.2-2.9,2.9-3.6,5V414h-3.4v-26h3.2v6.2c0.9-1.8,2.1-3.3,3.6-4.5
		c1.5-1.1,3.1-1.8,4.7-1.9c0.3,0,0.6,0,0.9,0s0.5,0,0.6,0V391z"/>
	<path class="st0" d="M851,411.7l17.5-21.1h-17V388h20.9v2.3l-17.3,21.1h17.3v2.5H851V411.7z"/>
	<path class="st0" d="M888.5,414.5c-1.9,0-3.6-0.4-5.2-1.1c-1.6-0.7-3-1.7-4.1-2.9c-1.2-1.2-2.1-2.7-2.7-4.3c-0.6-1.6-1-3.4-1-5.2
		c0-2.4,0.6-4.6,1.7-6.7c1.1-2,2.7-3.6,4.6-4.8s4.2-1.8,6.7-1.8c2.6,0,4.8,0.6,6.7,1.8c1.9,1.2,3.4,2.8,4.5,4.8
		c1.1,2,1.6,4.2,1.6,6.6c0,0.3,0,0.5,0,0.8c0,0.2,0,0.4,0,0.6H879c0.2,1.9,0.7,3.5,1.6,5c0.9,1.4,2,2.6,3.5,3.4
		c1.4,0.8,3,1.3,4.6,1.3c1.7,0,3.3-0.4,4.8-1.3c1.5-0.9,2.6-2,3.2-3.4l2.9,0.8c-0.5,1.2-1.3,2.3-2.4,3.3c-1.1,1-2.4,1.8-3.9,2.3
		C891.8,414.2,890.2,414.5,888.5,414.5z M878.9,399.8h19.3c-0.1-1.9-0.6-3.5-1.5-4.9c-0.9-1.4-2-2.5-3.5-3.3s-3-1.2-4.7-1.2
		s-3.3,0.4-4.7,1.2c-1.4,0.8-2.5,1.9-3.4,3.4C879.5,396.3,879,398,878.9,399.8z"/>
	<path class="st0" d="M919.3,414.5c-2,0-3.9-0.5-5.7-1.6s-3.1-2.4-4-4v5h-3v-36.5h3.4v16c1.2-1.8,2.6-3.2,4.2-4.3s3.5-1.6,5.7-1.6
		c1.8,0,3.5,0.4,4.9,1.1c1.5,0.8,2.7,1.8,3.7,3.1c1,1.3,1.8,2.7,2.3,4.3c0.5,1.6,0.8,3.3,0.8,4.9c0,1.8-0.3,3.5-0.9,5.1
		c-0.6,1.6-1.5,3-2.6,4.3c-1.1,1.2-2.4,2.2-3.9,2.9C922.7,414.1,921.1,414.5,919.3,414.5z M918.5,411.5c1.4,0,2.7-0.3,3.9-0.8
		c1.2-0.6,2.2-1.3,3.1-2.3c0.9-1,1.5-2.1,2-3.4c0.5-1.2,0.7-2.5,0.7-3.8c0-1.8-0.4-3.5-1.2-5.1c-0.8-1.6-1.9-2.9-3.3-3.9
		s-3-1.5-4.9-1.5c-1.3,0-2.6,0.3-3.7,0.9s-2.2,1.4-3,2.4c-0.9,1-1.6,2-2.2,3.2v8c0.1,0.9,0.5,1.7,1,2.5c0.6,0.8,1.3,1.4,2.1,2
		c0.8,0.6,1.7,1,2.7,1.3C916.7,411.3,917.6,411.5,918.5,411.5z"/>
</g>
</svg>
