<?xml version="1.0" encoding="utf-8"?>
<!-- Generator: Adobe Illustrator 21.0.0, SVG Export Plug-In . SVG Version: 6.00 Build 0)  -->
<svg version="1.1" xmlns="http://www.w3.org/2000/svg" xmlns:xlink="http://www.w3.org/1999/xlink" x="0px" y="0px"
	 viewBox="0 0 1000 673" style="enable-background:new 0 0 1000 673;" xml:space="preserve">
<style type="text/css">
	.st0{fill:#61CC8A;}
</style>
<g id="Warstwa_1">
	<g>
		<path class="st0" d="M813.5,394.1c-51.4,23.7-65.7,102.3-31.9,175.5c33.8,73.2,102.8,113.4,154.2,89.7
			c51.4-23.7,65.7-102.3,31.9-175.5C933.9,410.5,864.9,370.4,813.5,394.1z M896.7,465.8c54.2,17.9,89.1,59.8,77.9,93.6
			c-11.2,33.8-64.1,46.8-118.3,28.9c-54.2-17.9-89.1-59.8-77.9-93.6C789.5,460.9,842.5,447.9,896.7,465.8z"/>
		
			<rect x="417.2" y="-15.8" transform="matrix(4.438716e-03 -1 1 4.438716e-03 29.543 827.1151)" class="st0" width="26" height="829"/>
		<path class="st0" d="M15.7,383.9C210.6,333.4,261.5,38,569.9,183.6c-263-26.4-366.5,144.4-366.7,201.1L15.7,410.1L15.7,383.9z"/>
		<path class="st0" d="M195,328.7c86,0.4,364.5-8.9,430.7,57.9c-168.1,11.3-516-1.3-516-1.3L195,328.7z"/>
	</g>
	<path class="st0" d="M795.1,124.3c-36-72.1-106.3-110.1-156.9-84.8c-50.6,25.3-62.5,104.3-26.5,176.4
		C647.7,288,718,326,768.6,300.7C819.3,275.4,831.1,196.4,795.1,124.3z M668.2,265.2c-33.4-12.5-44.2-65.9-24.3-119.4
		s63.2-86.7,96.6-74.2c33.4,12.5,44.2,65.9,24.3,119.4C744.8,244.4,701.6,277.6,668.2,265.2z"/>
	<polygon class="st0" points="481.4,673 793.3,280.4 772.9,264.2 448.2,673 	"/>
	<path class="st0" d="M551.2,673c58.1-80.1,111.9-169,105.9-221.1c-51,55.6-120.9,142.3-182.4,221.1H551.2z"/>
</g>
<g id="Warstwa_2">
</g>
</svg>
