<?xml version="1.0" encoding="utf-8"?>
<!-- Generator: Adobe Illustrator 21.0.0, SVG Export Plug-In . SVG Version: 6.00 Build 0)  -->
<svg version="1.1" id="Warstwa_1" xmlns="http://www.w3.org/2000/svg" xmlns:xlink="http://www.w3.org/1999/xlink" x="0px" y="0px"
	 viewBox="0 0 24 24" style="enable-background:new 0 0 24 24;" xml:space="preserve">
<style type="text/css">
	.st0{fill:#61CC8A;}
</style>
<path class="st0" d="M11.5,2C11.3,2,11,2,10.8,2.1s-0.3,0.4-0.3,0.6v12.1C9.8,14.3,8.9,14,8,14c-2.2,0-4,1.8-4,4s1.8,4,4,4
	c2.1,0,3.8-1.6,4-3.6c0-0.1,0-0.1,0-0.2V8.8l7,2.6c0.2,0.1,0.5,0.1,0.7-0.1c0.2-0.1,0.3-0.4,0.3-0.6V7.5c0-1.4-0.8-2.6-2.1-3L11.5,2
	z"/>
</svg>
