<?xml version="1.0" encoding="utf-8"?>
<!-- Generator: Adobe Illustrator 21.0.0, SVG Export Plug-In . SVG Version: 6.00 Build 0)  -->
<svg version="1.1" id="Layer_1" xmlns="http://www.w3.org/2000/svg" xmlns:xlink="http://www.w3.org/1999/xlink" x="0px" y="0px"
	 viewBox="0 0 64 64" style="enable-background:new 0 0 64 64;" xml:space="preserve">
<style type="text/css">
	.st0{fill:#61CC8A;}
</style>
<path class="st0" d="M23.7,16.4v4.8v5.1v14.2c-1.3-0.8-2.8-1.2-4.4-1.2c-4.6,0-8.4,3.7-8.4,8.3c0,4.6,3.7,8.4,8.4,8.4
	c4.6,0,8.3-3.7,8.4-8.4l0,0V25.2L49,19v14.3c-1.3-0.8-2.8-1.2-4.3-1.2c-4.6,0-8.4,3.7-8.4,8.3c0,4.6,3.7,8.4,8.4,8.4
	c4.3,0,7.9-3.3,8.3-7.6h0V17.9v-3.6V8L23.7,16.4z"/>
</svg>
