<?xml version="1.0" encoding="utf-8"?>
<!-- Generator: Adobe Illustrator 21.0.0, SVG Export Plug-In . SVG Version: 6.00 Build 0)  -->
<svg version="1.1" xmlns="http://www.w3.org/2000/svg" xmlns:xlink="http://www.w3.org/1999/xlink" x="0px" y="0px"
	 viewBox="0 0 736 826" style="enable-background:new 0 0 736 826;" xml:space="preserve">
<style type="text/css">
	.st0{fill:#60CC89;}
</style>
<g id="Warstwa_1">
	<g>
		<path class="st0" d="M316.2,726.1c0.9-56.6-63.8-103.5-144.4-104.7S25.1,665,24.2,721.6C23.3,778.2,88,825.1,168.6,826.3
			C249.2,827.6,315.3,782.7,316.2,726.1z M215.6,770.1c-39.6,41.1-92.4,54.5-118.1,29.8c-25.7-24.7-14.4-78.1,25.1-119.2
			c39.6-41.1,92.4-54.5,118.1-29.8C266.4,675.6,255.1,729,215.6,770.1z"/>
		
			<rect x="464.9" y="-36" transform="matrix(0.8996 0.4368 -0.4368 0.8996 213.3219 -170.7138)" class="st0" width="26" height="829"/>
		<path class="st0" d="M670.6,11.4c-38.8,197.5,205.4,371.2-59.3,586.3C749,371.9,639.8,204.7,588.8,180L647,0L670.6,11.4z"/>
		<path class="st0" d="M642.8,196.8c-37.6,77.4-149.7,332.5-238.6,363.3C466.8,403.7,628.7,95.5,628.7,95.5L642.8,196.8z"/>
	</g>
	<g>
		<path class="st0" d="M567.4,826.3c80.6-1.2,145.3-48.1,144.4-104.7c-0.9-56.6-66.9-101.5-147.6-100.2s-145.3,48.1-144.4,104.7
			C420.7,782.7,486.8,827.6,567.4,826.3z M495.3,650.9c25.7-24.7,78.6-11.4,118.1,29.8c39.6,41.1,50.8,94.5,25.1,119.2
			c-25.7,24.7-78.6,11.4-118.1-29.8S469.6,675.6,495.3,650.9z"/>
		
			<rect x="245.1" y="-36" transform="matrix(-0.8996 0.4368 -0.4368 -0.8996 655.598 606.3641)" class="st0" width="26" height="829"/>
		<path class="st0" d="M65.4,11.4c38.8,197.5-205.4,371.2,59.3,586.3C-13,371.9,96.2,204.7,147.2,180L88,6L65.4,11.4z"/>
		<path class="st0" d="M93.2,196.8c37.6,77.4,149.7,332.5,238.6,363.3C269.2,403.7,107.3,95.5,107.3,95.5L93.2,196.8z"/>
	</g>
</g>
<g id="Warstwa_2">
	<g>
		<g>
			<g>
				<path class="st0" d="M368,318.1L368,318.1l-99.6-172.5c-2.2,8.4-3.4,17.2-3.4,26.4c0,18.1,4.7,35.1,12.9,49.9L368,378l37.4-64.7
					C393.4,316.4,380.9,318.1,368,318.1"/>
				<path class="st0" d="M471.6,69c8.9,8.9,16.6,19,22.9,29.9h0l-99.6,172.5c26-7,47.9-24,61.4-46.5l90.1-156H471.6z"/>
				<path class="st0" d="M241.4,98.9L241.4,98.9h199.2C422,80.4,396.3,69,368,69H189.6l37.4,64.7
					C230.3,121.4,235.2,109.7,241.4,98.9"/>
				<path class="st0" d="M368,62.4L368,62.4c45.5,0,84.6,27.8,101.2,67.3l14-24.2l0.2-0.1l3.7-6.3c-24.6-40-68.6-66.6-119-66.6
					c-32.6,0-62.6,11.2-86.4,29.9H368z"/>
				<path class="st0" d="M463.9,225.1c-18.7,33.7-54.6,56.5-95.9,56.5c-4.8,0-9.4-0.3-14-0.9l14,24.2l3.8,6.6
					c75.3-2,135.7-63.7,135.7-139.5c0-6.8-0.5-13.5-1.4-20L463.9,225.1z"/>
				<path class="st0" d="M274,228.3c-9.9-16.5-15.6-35.7-15.6-56.3c0-25,8.4-48,22.4-66.5h-28h-7.6c-10.7,19.7-16.8,42.4-16.8,66.5
					c0,58.8,36.4,109.1,87.8,129.6L274,228.3z"/>
			</g>
		</g>
	</g>
</g>
</svg>
