<?xml version="1.0" encoding="utf-8"?>
<!-- Generator: Adobe Illustrator 21.0.0, SVG Export Plug-In . SVG Version: 6.00 Build 0)  -->
<svg version="1.1" id="Warstwa_1" xmlns="http://www.w3.org/2000/svg" xmlns:xlink="http://www.w3.org/1999/xlink" x="0px" y="0px"
	 viewBox="0 0 396 954" style="enable-background:new 0 0 396 954;" xml:space="preserve">
<style type="text/css">
	.st0{display:none;}
	.st1{display:inline;}
</style>
<g id="organista" class="st0">
	<path class="st1" d="M269.6,119.8v591c4.8,54,15.5,96.7,32.2,128c16.7-31.3,27.5-74,32.2-128v-591
		C312.1,108.8,290.6,109,269.6,119.8z M275.9,617.6h51.8v25h-51.8V617.6z"/>
	<path class="st1" d="M141,62.2v688.3c5.9,63,19.3,112.6,40.1,149.1c20.8-36.4,34.2-86.2,40.1-149.1V62.2
		C193.8,49.3,167.1,49.6,141,62.2z M148.9,642h64.4v29.1h-64.4V642z"/>
	<path class="st1" d="M0.1,10.8v775.3C6.9,857,22.3,912.9,46.3,954c24-41.1,39.4-97.1,46.2-167.9V10.8C61-3.7,30.2-3.4,0.1,10.8z
		 M9.1,663.7h74.4v32.8H9.1V663.7z"/>
</g>
<g id="dj_1_">
	<path d="M0,60.3v53.6c42.7,1.9,84.2,11.2,123.5,27.8c42.7,18.1,81,43.9,114,76.8s58.8,71.3,76.8,114
		c18.7,44.2,28.2,91.2,28.2,139.5h-19c0-181.8-143.7-330.7-323.5-339.1v24c78.3,3.9,151.3,36.2,207.1,92
		c59.6,59.6,92.4,138.8,92.4,223.1h-19c0-158.1-124.4-287.7-280.5-296.1v132.8c83.1,8,148,78,148,163.2S83.1,627.1,0,635.1v248.5
		c220.1-8.4,396-189.5,396-411.7S220.1,68.7,0,60.3z"/>
	<path d="M0,390.6v162.9c38.2-7.5,67-41.1,67-81.4C67,431.6,38.2,398,0,390.6z"/>
</g>
<g id="podkłady">
</g>
</svg>
