<?xml version="1.0" encoding="utf-8"?>
<!-- Generator: Adobe Illustrator 21.0.0, SVG Export Plug-In . SVG Version: 6.00 Build 0)  -->
<svg version="1.1" id="Warstwa_1" xmlns="http://www.w3.org/2000/svg" xmlns:xlink="http://www.w3.org/1999/xlink" x="0px" y="0px"
	 viewBox="0 0 333.9 954" style="enable-background:new 0 0 333.9 954;" xml:space="preserve">
<g id="Warstwa_2">
	<path d="M269.5,119.8v591c4.8,54,15.5,96.7,32.2,128c16.7-31.3,27.5-74,32.2-128v-591C312,108.8,290.5,109,269.5,119.8z
		 M275.8,617.6h51.8v25h-51.8V617.6z"/>
	<path d="M140.9,62.2v688.3c5.9,63,19.3,112.6,40.1,149.1c20.8-36.4,34.2-86.2,40.1-149.1V62.2C193.7,49.3,167,49.6,140.9,62.2z
		 M148.8,642h64.4v29.1h-64.4V642z"/>
	<path d="M0,10.8v775.3C6.8,857,22.2,912.9,46.2,954c24-41.1,39.4-97.1,46.2-167.9V10.8C60.9-3.7,30.1-3.4,0,10.8z M9,663.7h74.4
		v32.8H9V663.7z"/>
</g>
</svg>
