<?xml version="1.0" encoding="utf-8"?>
<!-- Generator: Adobe Illustrator 21.0.0, SVG Export Plug-In . SVG Version: 6.00 Build 0)  -->
<svg version="1.1" id="Warstwa_1" xmlns="http://www.w3.org/2000/svg" xmlns:xlink="http://www.w3.org/1999/xlink" x="0px" y="0px"
	 viewBox="0 0 366.6 851.3" style="enable-background:new 0 0 366.6 851.3;" xml:space="preserve">
<g id="podkłady">
	<polygon points="101,338.3 0,338.3 0,851.3 59,851.3 	"/>
	<g>
		<path d="M166.5,169.3C160,79.7,89.2,8,0,0v169.3H166.5z"/>
		<path d="M0,197.3v113h115.5c28.8-29.8,47.5-69.2,51-113H0z"/>
	</g>
	<path d="M138.3,693.9l27.9-254.6c18.4,12.7,47.5,16.5,77.1,7.8c43.6-12.7,71.9-47.4,63.1-77.6c-8.8-30.1-51.3-44.2-94.9-31.5
		c-38.4,11.2-64.9,39.5-64.7,66.6l-32.3,295.2L101,819.6l14.9,3.2C148.1,694.7,341.7,660,244.8,458.3
		C260.2,602.1,185.2,673.8,138.3,693.9z"/>
	<path d="M178.6,24.9l100.7,40.2c-22.6,97.3,35.1,117.2,87.3,146.4c-85.3-6.8-73.2,80.6-2.8,116.2c-132.3-40.1-124.9-129.3-51.3-132
		c-50.8-15.7-84.4-32.1-84.4-32.1C247.7,122.6,250.8,64.6,178.6,24.9z"/>
</g>
</svg>
